<svg width="32" height="32" viewBox="0 0 32 32" fill="none" xmlns="http://www.w3.org/2000/svg">
<path d="M14.1337 18.4L11.267 15.5333C11.0225 15.2889 10.7114 15.1667 10.3337 15.1667C9.95588 15.1667 9.64477 15.2889 9.40033 15.5333C9.15588 15.7778 9.03366 16.0889 9.03366 16.4667C9.03366 16.8444 9.15588 17.1555 9.40033 17.4L13.2003 21.2C13.467 21.4667 13.7781 21.6 14.1337 21.6C14.4892 21.6 14.8003 21.4667 15.067 21.2L22.6003 13.6667C22.8448 13.4222 22.967 13.1111 22.967 12.7333C22.967 12.3555 22.8448 12.0444 22.6003 11.8C22.3559 11.5555 22.0448 11.4333 21.667 11.4333C21.2892 11.4333 20.9781 11.5555 20.7337 11.8L14.1337 18.4ZM16.0003 29.3333C14.1559 29.3333 12.4226 28.9831 10.8003 28.2827C9.17811 27.5822 7.76699 26.6324 6.56699 25.4333C5.36699 24.2342 4.41722 22.8231 3.71766 21.2C3.01811 19.5769 2.66788 17.8435 2.66699 16C2.6661 14.1564 3.01633 12.4231 3.71766 10.8C4.41899 9.17688 5.36877 7.76577 6.56699 6.56666C7.76522 5.36755 9.17633 4.41777 10.8003 3.71732C12.4243 3.01688 14.1577 2.66666 16.0003 2.66666C17.843 2.66666 19.5763 3.01688 21.2003 3.71732C22.8243 4.41777 24.2354 5.36755 25.4337 6.56666C26.6319 7.76577 27.5821 9.17688 28.2843 10.8C28.9865 12.4231 29.3363 14.1564 29.3337 16C29.331 17.8435 28.9808 19.5769 28.283 21.2C27.5852 22.8231 26.6354 24.2342 25.4337 25.4333C24.2319 26.6324 22.8208 27.5827 21.2003 28.284C19.5799 28.9853 17.8465 29.3351 16.0003 29.3333Z" fill="#087CE6"/>
</svg>
